<svg width="308" height="85" viewBox="0 0 308 85" fill="none" xmlns="http://www.w3.org/2000/svg">
<path d="M35.9943 40.706L26.2997 41.3026C26.134 40.474 25.7777 39.7282 25.2308 39.0653C24.6839 38.3859 23.9631 37.8473 23.0682 37.4496C22.1899 37.0353 21.1375 36.8281 19.9112 36.8281C18.2706 36.8281 16.8868 37.1761 15.7599 37.8722C14.633 38.5516 14.0696 39.4631 14.0696 40.6065C14.0696 41.518 14.4342 42.2886 15.1634 42.9183C15.8925 43.5481 17.1437 44.0535 18.9169 44.4347L25.8274 45.8267C29.5395 46.589 32.3071 47.8153 34.13 49.5057C35.9529 51.196 36.8643 53.4167 36.8643 56.1676C36.8643 58.67 36.1269 60.8658 34.652 62.755C33.1937 64.6442 31.1884 66.1191 28.6364 67.1797C26.1009 68.2237 23.1759 68.7457 19.8615 68.7457C14.8071 68.7457 10.7801 67.6934 7.78054 65.5888C4.79759 63.4676 3.04924 60.584 2.53551 56.9382L12.951 56.3913C13.2659 57.9325 14.0282 59.1091 15.2379 59.9212C16.4477 60.7166 17.9972 61.1143 19.8864 61.1143C21.7424 61.1143 23.2339 60.758 24.3608 60.0455C25.5043 59.3163 26.0843 58.38 26.1009 57.2365C26.0843 56.2753 25.6783 55.4882 24.8828 54.875C24.0874 54.2453 22.861 53.7647 21.2038 53.4332L14.5916 52.1158C10.8629 51.37 8.08712 50.0774 6.2642 48.2379C4.45786 46.3984 3.55469 44.0535 3.55469 41.2031C3.55469 38.7505 4.21757 36.6375 5.54332 34.8643C6.88565 33.0911 8.76657 31.724 11.1861 30.7628C13.6222 29.8016 16.4725 29.321 19.7372 29.321C24.5597 29.321 28.3546 30.3402 31.1222 32.3785C33.9063 34.4169 35.5303 37.1927 35.9943 40.706ZM60.7839 68.7457C56.8729 68.7457 53.5088 67.9171 50.6916 66.2599C47.8909 64.5862 45.7366 62.2661 44.2285 59.2997C42.737 56.3333 41.9913 52.9195 41.9913 49.0582C41.9913 45.1473 42.7453 41.7169 44.2534 38.767C45.778 35.8007 47.9406 33.4889 50.7413 31.8317C53.542 30.1579 56.8729 29.321 60.7342 29.321C64.0652 29.321 66.9818 29.9259 69.4842 31.1357C71.9866 32.3454 73.9669 34.044 75.4252 36.2315C76.8836 38.419 77.6873 40.9877 77.8365 43.9375H67.8436C67.5618 42.0317 66.8161 40.4988 65.6064 39.3388C64.4132 38.1622 62.8471 37.5739 60.9082 37.5739C59.2676 37.5739 57.8341 38.0213 56.6078 38.9162C55.398 39.7945 54.4534 41.0788 53.774 42.7692C53.0945 44.4595 52.7548 46.5062 52.7548 48.9091C52.7548 51.3452 53.0862 53.4167 53.7491 55.1236C54.4286 56.8305 55.3815 58.1314 56.6078 59.0263C57.8341 59.9212 59.2676 60.3686 60.9082 60.3686C62.118 60.3686 63.2034 60.12 64.1646 59.6229C65.1423 59.1257 65.9461 58.4048 66.5758 57.4602C67.2221 56.4991 67.6447 55.3473 67.8436 54.005H77.8365C77.6708 56.9216 76.8753 59.4903 75.4501 61.7109C74.0415 63.915 72.0943 65.6385 69.6085 66.8814C67.1227 68.1243 64.1812 68.7457 60.7839 68.7457ZM84.6165 68V29.8182H94.8828V36.4801H95.2805C95.9766 34.1103 97.1449 32.3205 98.7855 31.1108C100.426 29.8845 102.315 29.2713 104.453 29.2713C104.983 29.2713 105.555 29.3044 106.168 29.3707C106.781 29.437 107.32 29.5282 107.784 29.6442V39.0405C107.287 38.8913 106.599 38.7588 105.721 38.6428C104.843 38.5268 104.039 38.4688 103.31 38.4688C101.752 38.4688 100.36 38.8085 99.1335 39.4879C97.9238 40.1508 96.9626 41.0788 96.25 42.272C95.554 43.4652 95.206 44.8407 95.206 46.3984V68H84.6165ZM113.259 68V29.8182H123.849V68H113.259ZM118.579 24.8963C117.004 24.8963 115.654 24.3743 114.527 23.3303C113.416 22.2696 112.861 21.0019 112.861 19.527C112.861 18.0687 113.416 16.8175 114.527 15.7734C115.654 14.7128 117.004 14.1825 118.579 14.1825C120.153 14.1825 121.495 14.7128 122.606 15.7734C123.733 16.8175 124.296 18.0687 124.296 19.527C124.296 21.0019 123.733 22.2696 122.606 23.3303C121.495 24.3743 120.153 24.8963 118.579 24.8963ZM132.331 82.3182V29.8182H142.772V36.2315H143.244C143.708 35.2041 144.379 34.16 145.257 33.0994C146.152 32.0223 147.312 31.1274 148.738 30.4148C150.179 29.6856 151.969 29.321 154.107 29.321C156.891 29.321 159.46 30.0502 161.813 31.5085C164.166 32.9503 166.047 35.1295 167.456 38.0462C168.864 40.9463 169.569 44.5838 169.569 48.9588C169.569 53.2178 168.881 56.8139 167.505 59.7472C166.146 62.6638 164.29 64.8762 161.937 66.3842C159.6 67.8757 156.982 68.6214 154.082 68.6214C152.027 68.6214 150.279 68.2817 148.837 67.6023C147.412 66.9228 146.243 66.0694 145.332 65.0419C144.421 63.9979 143.725 62.9455 143.244 61.8849H142.921V82.3182H132.331ZM142.697 48.9091C142.697 51.1794 143.012 53.1598 143.642 54.8501C144.271 56.5405 145.183 57.858 146.376 58.8026C147.569 59.7306 149.019 60.1946 150.726 60.1946C152.45 60.1946 153.908 59.7223 155.101 58.7777C156.294 57.8165 157.198 56.4908 157.811 54.8004C158.44 53.0935 158.755 51.1297 158.755 48.9091C158.755 46.705 158.449 44.7661 157.836 43.0923C157.222 41.4186 156.319 40.1094 155.126 39.1648C153.933 38.2202 152.466 37.7479 150.726 37.7479C149.003 37.7479 147.544 38.2036 146.351 39.1151C145.175 40.0265 144.271 41.3191 143.642 42.9929C143.012 44.6667 142.697 46.6387 142.697 48.9091ZM196.937 29.8182V37.7727H173.944V29.8182H196.937ZM179.164 20.6705H189.753V56.267C189.753 57.2448 189.902 58.0071 190.201 58.554C190.499 59.0843 190.913 59.4571 191.444 59.6726C191.99 59.888 192.62 59.9957 193.333 59.9957C193.83 59.9957 194.327 59.9543 194.824 59.8714C195.321 59.772 195.703 59.6974 195.968 59.6477L197.633 67.5277C197.103 67.6934 196.357 67.884 195.396 68.0994C194.435 68.3314 193.266 68.4723 191.891 68.522C189.339 68.6214 187.102 68.2817 185.179 67.5028C183.274 66.724 181.79 65.5142 180.73 63.8736C179.669 62.233 179.147 60.1615 179.164 57.6591V20.6705ZM228.32 51.7429V29.8182H238.91V68H228.743V61.0646H228.345C227.483 63.3018 226.05 65.0999 224.045 66.4588C222.056 67.8177 219.628 68.4972 216.761 68.4972C214.209 68.4972 211.964 67.9171 210.025 66.7571C208.086 65.5971 206.57 63.9482 205.476 61.8104C204.399 59.6726 203.852 57.1122 203.835 54.1293V29.8182H214.425V52.2401C214.441 54.4938 215.046 56.2753 216.239 57.5845C217.433 58.8937 219.032 59.5483 221.037 59.5483C222.313 59.5483 223.506 59.2583 224.616 58.6783C225.727 58.0817 226.622 57.2034 227.301 56.0433C227.997 54.8833 228.337 53.4498 228.32 51.7429ZM247.38 68V29.8182H257.472V36.5547H257.92C258.715 34.3175 260.041 32.5526 261.897 31.2599C263.753 29.9673 265.974 29.321 268.559 29.321C271.177 29.321 273.406 29.9756 275.246 31.2848C277.085 32.5774 278.312 34.334 278.925 36.5547H279.323C280.102 34.3672 281.51 32.6188 283.548 31.3097C285.603 29.9839 288.031 29.321 290.832 29.321C294.395 29.321 297.287 30.4562 299.507 32.7266C301.744 34.9803 302.863 38.1787 302.863 42.3217V68H292.298V44.4098C292.298 42.2886 291.735 40.6977 290.608 39.6371C289.481 38.5765 288.073 38.0462 286.382 38.0462C284.46 38.0462 282.96 38.6593 281.883 39.8857C280.806 41.0954 280.267 42.6946 280.267 44.6832V68H270.001V44.1861C270.001 42.3134 269.462 40.822 268.385 39.7116C267.325 38.6013 265.924 38.0462 264.184 38.0462C263.008 38.0462 261.947 38.3445 261.002 38.9411C260.074 39.5211 259.337 40.3414 258.79 41.402C258.243 42.446 257.97 43.6723 257.97 45.081V68H247.38Z" fill="url(#paint0_linear_5_13)"/>
<defs>
<linearGradient id="paint0_linear_5_13" x1="0" y1="42.5" x2="308" y2="42.5" gradientUnits="userSpaceOnUse">
<stop stop-color="#3A7BD5"/>
<stop offset="0.5" stop-color="#1DA7EA"/>
<stop offset="1" stop-color="#3BC4C4"/>
</linearGradient>
</defs>
</svg>
