<svg width="99" height="113" viewBox="0 0 99 113" fill="none" xmlns="http://www.w3.org/2000/svg">
<path d="M95.5966 32.5284L67.8978 34.2329C67.4243 31.8655 66.4063 29.7348 64.8438 27.8409C63.2813 25.8996 61.2216 24.3608 58.6648 23.2244C56.1554 22.0407 53.1487 21.4489 49.6449 21.4489C44.9574 21.4489 41.0038 22.4432 37.7841 24.4318C34.5645 26.3731 32.9546 28.9773 32.9546 32.2443C32.9546 34.8485 33.9963 37.0502 36.0796 38.8494C38.1629 40.6487 41.7377 42.0928 46.804 43.1818L66.5484 47.1591C77.1544 49.3371 85.0616 52.8409 90.2699 57.6704C95.4783 62.5 98.0824 68.8447 98.0824 76.7045C98.0824 83.8542 95.9754 90.1278 91.7614 95.5256C87.5948 100.923 81.8656 105.137 74.5739 108.168C67.3296 111.151 58.9726 112.642 49.5029 112.642C35.0616 112.642 23.5559 109.635 14.9859 103.622C6.46312 97.5615 1.46786 89.3229 5.60284e-05 78.9062L29.7586 77.3437C30.6582 81.7471 32.8362 85.1089 36.2927 87.429C39.7491 89.7017 44.1762 90.8381 49.5739 90.8381C54.877 90.8381 59.1383 89.8201 62.358 87.7841C65.6251 85.7007 67.2823 83.0256 67.3296 79.7585C67.2823 77.0123 66.1222 74.7632 63.8495 73.0114C61.5768 71.2121 58.073 69.839 53.3381 68.892L34.4461 65.1278C23.7927 62.9971 15.8618 59.304 10.6535 54.0483C5.49248 48.7926 2.91199 42.0928 2.91199 33.9489C2.91199 26.9413 4.80593 20.9043 8.59381 15.8381C12.429 10.7718 17.8031 6.86552 24.716 4.1193C31.6762 1.37309 39.8201 -1.00136e-05 49.1478 -1.00136e-05C62.9262 -1.00136e-05 73.769 2.91192 81.6762 8.73578C89.6307 14.5596 94.2709 22.4905 95.5966 32.5284Z" fill="url(#paint0_linear_5_21)"/>
<defs>
<linearGradient id="paint0_linear_5_21" x1="-41.0919" y1="37.5114" x2="138.908" y2="37.5114" gradientUnits="userSpaceOnUse">
<stop stop-color="#3A7BD5"/>
<stop offset="0.5" stop-color="#1DA7EA"/>
<stop offset="1" stop-color="#3BC4C4"/>
</linearGradient>
</defs>
</svg>
